<?xml version="1.0" encoding="utf-8"?>
<!-- Generator: Adobe Illustrator 22.1.0, SVG Export Plug-In . SVG Version: 6.00 Build 0)  -->
<svg version="1.1" id="Layer_1" xmlns="http://www.w3.org/2000/svg" xmlns:xlink="http://www.w3.org/1999/xlink" x="0px" y="0px"
	 viewBox="0 0 324.8 365" style="enable-background:new 0 0 324.8 365;" xml:space="preserve">
<style type="text/css">
	.st0{fill:#999;}
	.st1{fill:#999;}
	.st2{fill:#999;}
	.st3{fill:#FFFFFF;}
</style>
<path id="XMLID_3_" class="st0" d="M324.7,107.3c0-6.1-1.3-11.6-4-16.2c-2.6-4.6-6.5-8.4-11.7-11.4c-43.2-24.9-86.5-49.8-129.7-74.7
	c-11.7-6.7-22.9-6.5-34.5,0.3c-17.2,10.1-103.4,59.5-129,74.4C5.2,85.8,0,95.1,0,107.3c0,50.1,0,100.3,0,150.4
	c0,6,1.3,11.3,3.8,15.9c2.6,4.7,6.6,8.7,11.9,11.8c25.7,14.9,111.8,64.2,129,74.4c11.6,6.8,22.9,7.1,34.5,0.3
	c43.2-25,86.5-49.8,129.7-74.7c5.4-3.1,9.3-7,11.9-11.8c2.5-4.6,3.8-9.9,3.8-15.9C324.8,257.7,324.8,157.4,324.7,107.3"/>
<path id="XMLID_4_" class="st1" d="M162.9,182L3.8,273.6c2.6,4.7,6.6,8.7,11.9,11.8c25.7,14.9,111.8,64.2,129,74.4
	c11.6,6.8,22.9,7.1,34.5,0.3c43.2-25,86.5-49.8,129.7-74.7c5.4-3.1,9.3-7,11.9-11.8L162.9,182"/>
<path id="XMLID_5_" class="st1" d="M115.8,209.1c9.3,16.2,26.7,27.1,46.6,27.1c20.1,0,37.6-11,46.8-27.4L162.9,182L115.8,209.1"/>
<path id="XMLID_6_" class="st2" d="M324.7,107.3c0-6.1-1.3-11.6-4-16.2L162.9,182L321,273.6c2.5-4.6,3.8-9.9,3.8-15.9
	C324.8,257.7,324.8,157.4,324.7,107.3"/>
<path id="XMLID_9_" class="st3" d="M209.2,208.8c-9.2,16.3-26.7,27.4-46.8,27.4c-20,0-37.4-10.9-46.6-27.1
	c-4.5-7.9-7.1-16.9-7.1-26.6c0-29.7,24-53.7,53.7-53.7c19.8,0,37.1,10.8,46.4,26.8l46.9-27c-18.7-32.2-53.5-53.9-93.4-53.9
	c-59.6,0-107.8,48.3-107.8,107.8c0,19.5,5.2,37.9,14.3,53.7c18.6,32.4,53.5,54.2,93.6,54.2c40.1,0,75.1-21.9,93.7-54.4L209.2,208.8"
	/>
<g id="XMLID_32_">
	<rect id="XMLID_1_" x="257.8" y="157" class="st3" width="10.7" height="51.7"/>
	<rect id="XMLID_30_" x="281.5" y="157" class="st3" width="10.7" height="51.7"/>
	
		<rect id="XMLID_31_" x="269.7" y="145.2" transform="matrix(-1.836970e-16 1 -1 -1.836970e-16 445.9865 -103.987)" class="st3" width="10.7" height="51.7"/>
	
		<rect id="XMLID_23_" x="269.7" y="168.8" transform="matrix(-1.836970e-16 1 -1 -1.836970e-16 469.6531 -80.3204)" class="st3" width="10.7" height="51.7"/>
</g>
</svg>
