<?xml version="1.0" encoding="utf-8"?>
<!-- Generator: Adobe Illustrator 22.1.0, SVG Export Plug-In . SVG Version: 6.00 Build 0)  -->
<svg version="1.1" id="layer" xmlns="http://www.w3.org/2000/svg" xmlns:xlink="http://www.w3.org/1999/xlink" x="0px" y="0px"
	 viewBox="0 0 599.9 236.7" style="enable-background:new 0 0 599.9 236.7;" xml:space="preserve">
<style type="text/css">
	.st0{fill:#999999;}
	.st1{fill:#747474;}
	.st2{fill:#FFFFFF;}
	.st3{fill:#333333;}
	.st4{fill:#7A7A7A;}
</style>
<g>
	<g>
		<path class="st0" d="M333.3,144.3h-17.8v-35.2h17.8c9.8,0,17.8,7.9,17.8,17.8C351,136.8,342.7,144.3,333.3,144.3 M333.3,78.8h-49
			v95.9h49c26.4,0,47.8-21.2,47.8-48.1C381,100.1,359.7,78.8,333.3,78.8"/>
		<path class="st0" d="M489,126.1c-0.4-26.4-21.7-47.3-47.8-47.3h-47.8v95.9h31.2V110h16.6c9.5,0,16.9,7.4,16.9,16.9V175h31.2
			L489,126.1L489,126.1z"/>
		<path class="st0" d="M599.6,126.1c-0.4-26.4-21.7-47.3-47.8-47.3h-48.1v95.9h31.2V110h16.9c9.1,0,16.9,7.4,16.9,16.9V175h31.2
			L599.6,126.1L599.6,126.1z"/>
	</g>
	<g>
		<path class="st1" d="M157.8,78.8V6.7C145.6,2.3,132.1,0,118.3,0H0v157.8h78.9v-79H157.8z"/>
		<path class="st2" d="M157.8,78.8h-79v78.9h39.5c21.7,0,39.5-17.8,39.5-39.5l0,0V78.8L157.8,78.8z"/>
		<path class="st3" d="M157.8,6.7v72.1h72.1C217.7,45.3,191.3,18.4,157.8,6.7z M0,236.6h78.9v-78.9H0V236.6z"/>
		<path class="st4" d="M229.9,78.8h-72.1v39.5l0,0c0,21.7-17.8,39.5-39.5,39.5H78.8v78.9h39.5c65.5,0,118.3-52.8,118.3-118.3
			C236.6,104.5,234.2,91.1,229.9,78.8z"/>
	</g>
</g>
</svg>
