<?xml version="1.0" encoding="utf-8"?>
<!-- Generator: Adobe Illustrator 22.1.0, SVG Export Plug-In . SVG Version: 6.00 Build 0)  -->
<svg version="1.1"
	 id="svg3430" xmlns:cc="http://creativecommons.org/ns#" xmlns:dc="http://purl.org/dc/elements/1.1/" xmlns:rdf="http://www.w3.org/1999/02/22-rdf-syntax-ns#" xmlns:svg="http://www.w3.org/2000/svg"
	 xmlns="http://www.w3.org/2000/svg" xmlns:xlink="http://www.w3.org/1999/xlink" x="0px" y="0px" viewBox="0 0 720 405"
	 style="enable-background:new 0 0 720 405;" xml:space="preserve">
<style type="text/css">
	.st0{clip-path:url(#SVGID_2_);}
	.st1{fill:url(#path3462_1_);}
	.st2{clip-path:url(#SVGID_4_);}
	.st3{fill:#808080;}
	.st4{clip-path:url(#SVGID_6_);}
	.st5{fill:#999999;}
	.st6{fill:#FFFFFF;}
</style>
<title  id="title3510">Official PHP Logo</title>
<g id="g3438" transform="matrix(1.25,0,0,-1.25,-4.4,394.29875)">
	<g id="g3440">
		<g>
			<defs>
				<path id="SVGID_1_" d="M15,153.4C15,73.1,138.8,8,291.5,8l0,0C444.2,8,568,73.1,568,153.4l0,0c0,80.3-123.8,145.4-276.5,145.4
					l0,0C138.8,298.9,15,233.8,15,153.4"/>
			</defs>
			<clipPath id="SVGID_2_">
				<use xlink:href="#SVGID_1_"  style="overflow:visible;"/>
			</clipPath>
			<g id="g3442" class="st0">
				<g id="g3448">
					<g id="g3450">
						
							<radialGradient id="path3462_1_" cx="176.2663" cy="-71.3697" r="1" gradientTransform="matrix(453.8224 0 0 -453.8224 -79812.5391 -32141.4121)" gradientUnits="userSpaceOnUse">
							<stop  offset="0" style="stop-color:#B5B5B5"/>
							<stop  offset="0.3" style="stop-color:#B5B5B5"/>
							<stop  offset="0.75" style="stop-color:#525252"/>
							<stop  offset="1" style="stop-color:#525252"/>
						</radialGradient>
						<path id="path3462" class="st1" d="M15,153.4C15,73.1,138.8,8,291.5,8l0,0C444.2,8,568,73.1,568,153.4l0,0
							c0,80.3-123.8,145.4-276.5,145.4l0,0C138.8,298.9,15,233.8,15,153.4"/>
					</g>
				</g>
			</g>
		</g>
	</g>
	<g id="g3464">
		<g>
			<defs>
				<rect id="SVGID_3_" x="-68.5" y="-49.1" width="720" height="405"/>
			</defs>
			<clipPath id="SVGID_4_">
				<use xlink:href="#SVGID_3_"  style="overflow:visible;"/>
			</clipPath>
			<g id="g3466" class="st2">
				<g id="g3472" transform="translate(288,27.3594)">
					<path id="path3474" class="st3" d="M3.5-8.6c146.7,0,265.7,60.3,265.7,134.6c0,74.4-119,134.6-265.7,134.6
						s-265.7-60.3-265.7-134.6C-262.2,51.7-143.2-8.6,3.5-8.6"/>
				</g>
			</g>
		</g>
	</g>
	<g id="g3476">
		<g>
			<defs>
				<rect id="SVGID_5_" x="-68.5" y="-49.1" width="720" height="405"/>
			</defs>
			<clipPath id="SVGID_6_">
				<use xlink:href="#SVGID_5_"  style="overflow:visible;"/>
			</clipPath>
			<g id="g3478" class="st4">
				<g id="g3484" transform="translate(161.7344,145.3066)">
					<path id="path3486" class="st5" d="M3.5-8.6c12.1,0,21.1,2.2,26.8,6.6c5.6,4.3,9.5,11.9,11.6,22.4c1.9,9.8,1.2,16.7-2.2,20.3
						c-3.4,3.8-10.8,5.7-21.9,5.7H-1.5l-10.7-55H3.5z M-59.5-76.3c-0.9,0-1.7,0.4-2.3,1.1c-0.6,0.7-0.8,1.6-0.6,2.5L-34.2,73
						c0.3,1.4,1.5,2.4,2.9,2.4h61.1c19.2,0,33.5-5.2,42.4-15.5c9-10.3,11.8-24.8,8.3-42.9c-1.4-7.4-3.9-14.3-7.3-20.4
						c-3.4-6.2-8-11.8-13.5-16.9C53.1-26.5,45.6-31,37.5-33.6c-8-2.6-18.3-3.9-30.5-3.9h-24.7l-7.1-36.3c-0.3-1.4-1.5-2.4-2.9-2.4
						H-59.5z"/>
				</g>
				<g id="g3488" transform="translate(159.2236,197.3071)">
					<path id="path3490" class="st6" d="M3.5-8.6h16.8c13.4,0,18.1-2.9,19.7-4.7c2.6-2.9,3.1-9.1,1.4-17.8
						C39.5-40.8,36-47.7,31-51.6c-5.2-4-13.6-6-24.9-6H-6L3.5-8.6z M32.4,26.4h-61.1c-2.9,0-5.3-2-5.9-4.9l-28.3-145.8
						c-0.3-1.8,0.1-3.6,1.3-5c1.1-1.4,2.8-2.2,4.6-2.2h31.8c2.9,0,5.3,2,5.9,4.9l6.6,33.9H9.4c12.6,0,23.2,1.4,31.5,4.1
						c8.5,2.8,16.4,7.5,23.4,14c5.8,5.3,10.5,11.2,14.1,17.7c3.6,6.4,6.2,13.6,7.7,21.3c3.7,19.1,0.7,34.4-9,45.5
						C67.5,20.9,52.4,26.4,32.4,26.4 M-13.3-63.6H6c12.8,0,22.3,2.4,28.6,7.2c6.3,4.8,10.5,12.9,12.7,24.2
						c2.1,10.8,1.1,18.5-2.9,22.9c-4,4.5-12.1,6.7-24.1,6.7H-1.4L-13.3-63.6 M32.4,20.4c18.4,0,31.8-4.8,40.2-14.5
						c8.4-9.6,11-23.1,7.6-40.4c-1.4-7.1-3.7-13.6-7-19.5c-3.3-5.9-7.6-11.3-12.9-16.2C53.9-76,46.8-80.3,39.1-82.8
						c-7.8-2.5-17.6-3.8-29.6-3.8h-27.2l-7.5-38.8H-57l28.3,145.8H32.4"/>
				</g>
				<g id="g3492" transform="translate(311.583,116.3066)">
					<path id="path3494" class="st5" d="M3.5-8.6c-0.9,0-1.7,0.4-2.3,1.1C0.6-6.8,0.4-5.9,0.6-5l12.5,64.5
						c1.2,6.1,0.9,10.5-0.8,12.4c-1.1,1.1-4.2,3-13.6,3H-24L-39.8-6.1c-0.3-1.4-1.5-2.4-2.9-2.4h-31.5c-0.9,0-1.7,0.4-2.3,1.1
						c-0.6,0.7-0.8,1.6-0.6,2.5l28.3,145.8c0.3,1.4,1.5,2.4,2.9,2.4h31.5c0.9,0,1.7-0.4,2.3-1.1c0.6-0.7,0.8-1.6,0.6-2.5l-6.8-35.2
						H6.1c18.6,0,31.2-3.3,38.6-10c7.5-6.9,9.8-17.9,6.9-32.7L38.5-6.1c-0.3-1.4-1.5-2.4-2.9-2.4H3.5z"/>
				</g>
				<g id="g3496" transform="translate(293.6611,271.0571)">
					<path id="path3498" class="st6" d="M3.5-8.6H-28c-2.9,0-5.3-2-5.9-4.9l-28.3-145.8c-0.3-1.8,0.1-3.6,1.3-5s2.8-2.2,4.6-2.2
						h31.5c2.9,0,5.3,2,5.9,4.9l15.3,78.6h20.2c9.4,0,11.3-2,11.4-2.1c0.6-0.6,1.3-3.4,0.1-9.8l-12.5-64.5c-0.3-1.8,0.1-3.6,1.3-5
						s2.8-2.2,4.6-2.2h32c2.9,0,5.3,2,5.9,4.9l13.2,67.8c3.1,15.9,0.4,27.9-7.9,35.5c-7.9,7.3-21.2,10.8-40.6,10.8H3.3l6.1,31.6
						c0.3,1.8-0.1,3.6-1.3,5C7-9.4,5.3-8.6,3.5-8.6 M3.5-14.6L-4-53.3h28.1c17.7,0,29.8-3.1,36.5-9.2c6.7-6.2,8.7-16.1,6-29.9
						l-13.2-67.8h-32L34-95.8c1.4,7.3,0.9,12.3-1.6,15c-2.5,2.7-7.7,4-15.8,4H-8.6l-16.2-83.5h-31.5L-28-14.6H3.5"/>
				</g>
				<g id="g3500" transform="translate(409.5498,145.3066)">
					<path id="path3502" class="st5" d="M3.5-8.6c12.1,0,21.1,2.2,26.8,6.6c5.6,4.3,9.5,11.9,11.6,22.4c1.9,9.8,1.2,16.7-2.2,20.3
						c-3.4,3.8-10.8,5.7-21.9,5.7H-1.5l-10.7-55H3.5z M-59.5-76.3c-0.9,0-1.7,0.4-2.3,1.1c-0.6,0.7-0.8,1.6-0.6,2.5L-34.2,73
						c0.3,1.4,1.5,2.4,2.9,2.4h61.1c19.2,0,33.5-5.2,42.4-15.5c9-10.3,11.8-24.8,8.3-42.9c-1.4-7.4-3.9-14.3-7.3-20.4
						c-3.4-6.2-8-11.8-13.5-16.9C53.1-26.5,45.6-31,37.5-33.6c-8-2.6-18.3-3.9-30.5-3.9h-24.7l-7.1-36.3c-0.3-1.4-1.5-2.4-2.9-2.4
						H-59.5z"/>
				</g>
				<g id="g3504" transform="translate(407.0391,197.3071)">
					<path id="path3506" class="st6" d="M3.5-8.6h16.8c13.4,0,18.1-2.9,19.7-4.7c2.6-2.9,3.1-9.1,1.4-17.8
						C39.5-40.8,36-47.7,31-51.6c-5.2-4-13.6-6-24.9-6H-6L3.5-8.6z M32.4,26.4h-61.1c-2.9,0-5.3-2-5.9-4.9l-28.3-145.8
						c-0.3-1.8,0.1-3.6,1.3-5c1.1-1.4,2.8-2.2,4.6-2.2h31.8c2.9,0,5.3,2,5.9,4.9l6.6,33.9H9.4c12.6,0,23.2,1.4,31.5,4.1
						c8.5,2.8,16.4,7.5,23.4,14c5.8,5.3,10.5,11.2,14.1,17.7c3.6,6.4,6.2,13.6,7.7,21.3c3.7,19.1,0.7,34.4-9,45.5
						C67.5,20.9,52.4,26.4,32.4,26.4 M-13.3-63.6H6c12.8,0,22.3,2.4,28.6,7.2c6.3,4.8,10.5,12.9,12.7,24.2
						c2.1,10.8,1.1,18.5-2.9,22.9c-4,4.5-12.1,6.7-24.1,6.7H-1.4L-13.3-63.6 M32.4,20.4c18.4,0,31.8-4.8,40.2-14.5s11-23.1,7.6-40.4
						c-1.4-7.1-3.7-13.6-7-19.5c-3.3-5.9-7.6-11.3-12.9-16.2C53.9-76,46.8-80.3,39.1-82.8c-7.8-2.5-17.6-3.8-29.6-3.8h-27.2
						l-7.5-38.8H-57l28.3,145.8H32.4"/>
				</g>
			</g>
		</g>
	</g>
</g>
</svg>
