<?xml version="1.0" encoding="utf-8"?>
<!-- Generator: Adobe Illustrator 22.1.0, SVG Export Plug-In . SVG Version: 6.00 Build 0)  -->
<svg version="1.1" id="Layer_1" xmlns="http://www.w3.org/2000/svg" xmlns:xlink="http://www.w3.org/1999/xlink" x="0px" y="0px"
	 viewBox="0 0 942.6 980" style="enable-background:new 0 0 942.6 980;" xml:space="preserve">
<style type="text/css">
	.st0{fill:#999999;}
</style>
<g>
	<g>
		<path class="st0" d="M579.1,895.4c1.3,0.1,2.6,0.2,3.9,0.2h296.7c34.7,0,62.9-28.2,62.9-62.9V144.9c0-34.7-28.2-62.9-62.9-62.9
			H583c-1.3,0-2.6,0.1-3.9,0.2V0L0,77.3v823.4L579.1,980V895.4z M579.1,118.3c1.3-0.2,2.6-0.4,3.9-0.4h296.7c14.9,0,27,12.1,27,27
			v687.8c0,14.9-12.1,27-27,27H583c-1.3,0-2.6-0.2-3.9-0.4V118.3z M93.5,548.8c-19.6-0.5-38.7-6.5-48.1-12.4l7.7-34
			c10.3,5.9,26.2,11.9,42.7,12.2c18,0.3,27.6-7.5,27.6-19.7c0-11.6-8.3-18.3-29.1-26.4c-28.4-10.7-46.7-27.6-46.7-54.2
			c0-31.2,24.1-55.7,64.7-56.8c19.7-0.5,34.4,3.6,45,8.3l-9,34.5c-7.1-3.5-19.7-8.6-36.8-8.3c-17,0.3-25.1,8.6-25.1,18.2
			c0,11.8,9.7,16.9,32.1,25.9c31.1,12.1,45.9,29.5,45.9,56.1C164.3,523.8,141.4,550.1,93.5,548.8z M354.1,587
			c-28-9.2-51.1-18.4-76.6-30.1c-4.2-1.8-8.7-2.8-13.2-3.2c-42.1-4-80.7-36.5-80.7-98.5c0-56.9,34.7-100.6,90.5-102.1
			c59-1.6,92.1,43.7,92.1,98.1c0,45.2-20.9,76.7-46.7,87.9v1.2c15.1,4.7,32,8.7,47.6,12.3L354.1,587z M526.7,557.3l-130.6-3.4V353.2
			l46.5-1.2v164.6l84.2,1.4L526.7,557.3L526.7,557.3z"/>
		<path class="st0" d="M273,388c-29.1,0.5-45.6,29.8-45.6,65.7c-0.3,36.5,16.8,64.7,45.3,65.2c29.2,0.5,46.5-27.5,46.5-66.1
			C319.2,417,302.5,387.5,273,388z"/>
		<path class="st0" d="M726.8,653.1c69.8,0,124.4-24.9,124.4-56.8v-35.8c0-5.1-1.5-10.3-4.4-15.3l-0.1-0.2c2.9-4.9,4.6-10,4.6-15.3
			v-35.8c0-5.1-1.5-10.3-4.4-15.3l-0.4-0.6c3.1-5,4.8-10.3,4.8-15.8v-35.8c0-4.8-1.3-9.8-4-14.7l-0.3-0.6c0.8-2.2,1.3-4.4,1.3-6.8
			c0-28.9-62.6-44.6-121.4-44.6c-58.8,0-121.3,15.6-121.3,44.6c0,2.4,0.6,4.6,1.4,6.8l-0.3,0.6c-2.7,4.9-4,9.8-4,14.7V462
			c0,5.5,1.7,10.8,4.8,15.8l-0.4,0.7c-2.9,5.1-4.4,10.2-4.4,15.3v35.8c0,5.3,1.6,10.5,4.6,15.3l-0.1,0.2c-2.9,5.1-4.4,10.2-4.4,15.3
			v35.8C602.5,628.2,657.1,653.1,726.8,653.1z M615.8,432.2c20,16.9,66.2,25.7,111,25.7c44.9,0,91.1-8.8,111.1-25.7V462
			c0,20.5-45.6,43.4-111.1,43.4c-65.4,0-111-22.9-111-43.4V432.2z M615.8,496c20.4,18.7,62.4,30.6,111,30.6
			c48.7,0,90.7-11.9,111.1-30.7v33.7c0,20.5-45.6,43.4-111.1,43.4c-65.4,0-111-22.9-111-43.4V496z M615.8,562.7
			c20.4,18.7,62.4,30.6,111,30.6c48.7,0,90.7-11.9,111.1-30.7v33.7c0,20.5-45.6,43.4-111.1,43.4c-65.4,0-111-22.9-111-43.4V562.7z"
			/>
	</g>
</g>
</svg>
