<?xml version="1.0" encoding="utf-8"?>
<!-- Generator: Adobe Illustrator 22.1.0, SVG Export Plug-In . SVG Version: 6.00 Build 0)  -->
<svg version="1.1" id="Layer_1" xmlns="http://www.w3.org/2000/svg" xmlns:xlink="http://www.w3.org/1999/xlink" x="0px" y="0px"
	 viewBox="0 0 2500 2500" style="enable-background:new 0 0 2500 2500;" xml:space="preserve">
<style type="text/css">
	.st0{clip-path:url(#SVGID_2_);}
	.st1{fill:#464342;}
	.st2{fill:#999999;}
</style>
<g>
	<defs>
		<rect id="SVGID_1_" x="0" y="0" width="2500" height="2500"/>
	</defs>
	<clipPath id="SVGID_2_">
		<use xlink:href="#SVGID_1_"  style="overflow:visible;"/>
	</clipPath>
	<g class="st0">
		<path class="st1" d="M7485.6,1742.4v48.5h-554.9v-48.5c162.4,0,191.4-41.2,191.4-283.5v-387.6c0-242.3-29.1-281.1-191.4-281.1
			v-48.5h501.6c249.5,0,387.7,128.4,387.7,300.5c0,167.2-138.2,298-387.7,298h-138.1v118.7
			C7294.2,1701.3,7323.2,1742.4,7485.6,1742.4L7485.6,1742.4z M7432.3,828.9h-138.1v421.6h138.1c135.7,0,198.7-94.5,198.7-208.4
			C7631,925.9,7568,828.9,7432.3,828.9z M9484.6,1563.2l-12.1,43.6c-21.8,80-48.5,109-220.5,109H9218c-126,0-147.8-29.1-147.8-201.1
			v-111.4c189,0,203.6,16.9,203.6,143h46.1v-361.1h-46.1c0,126-14.5,143-203.6,143v-271.4h133.2c172.1,0,198.7,29.1,220.5,109
			l12.2,46h38.7l-16.9-227.8h-712.4v46c135.7,0,157.5,29.1,157.5,201.1v310.2c0,157.4-18.5,197-125.5,202.7
			c-101.7-15.5-171.5-71-267-176l-111.5-121.1c150.2-26.7,230.2-121.2,230.2-227.8c0-133.2-113.9-235-327.1-235h-426.5v46
			c135.7,0,157.5,29.1,157.5,201.1v310.2c0,172-21.8,203.6-157.5,203.6v46H8358v-46c-135.6,0-157.5-31.5-157.5-203.6v-87.2h41.2
			l268.9,336.8h995.9l14.5-227.7L9484.6,1563.2L9484.6,1563.2z M8200.4,1379v-322.2h99.3c109,0,157.5,75.1,157.5,162.3
			c0,84.8-48.5,159.9-157.5,159.9L8200.4,1379z M9976.5,1822.4c-96.9,0-181.7-50.9-218.1-82.4c-12.1,12.1-33.9,48.5-38.7,82.4h-46.1
			V1488h48.5c19.4,159.9,130.8,254.4,273.8,254.4c77.5,0,140.5-43.6,140.5-116.3c0-63-55.7-111.5-155.1-157.5l-138.1-65.4
			c-96.9-46.1-169.6-126.1-169.6-232.6c0-116.3,109-215.6,259.3-215.6c80,0,147.8,29.1,189,63c12.1-9.7,24.2-36.4,31.5-65.5h46
			v285.9h-50.9c-17-113.9-80-208.4-208.4-208.4c-67.8,0-130.9,38.7-130.9,99.4c0,63,50.9,96.9,167.2,150.2l133.2,65.4
			c116.3,55.7,162.3,145.4,162.3,218.1C10272.1,1715.8,10138.8,1822.4,9976.5,1822.4L9976.5,1822.4z M10722.8,1822.4
			c-96.9,0-181.8-50.9-218.1-82.4c-12.1,12.1-33.9,48.5-38.7,82.4h-46.1V1488h48.5c19.4,159.9,130.8,254.4,273.8,254.4
			c77.5,0,140.5-43.6,140.5-116.3c0-63-55.7-111.5-155.1-157.5l-138.1-65.4c-96.9-46.1-169.6-126.1-169.6-232.6
			c0-116.3,109-215.6,259.3-215.6c80,0,147.8,29.1,189,63c12.1-9.7,24.2-36.4,31.5-65.5h46.1v285.9h-50.9
			c-17-113.9-80-208.4-208.4-208.4c-67.8,0-130.9,38.7-130.9,99.4c0,63,50.9,96.9,167.2,150.2l133.2,65.4
			c116.3,55.7,162.3,145.4,162.3,218.1C11018.4,1715.8,10885.1,1822.4,10722.8,1822.4L10722.8,1822.4z"/>
		<g>
			<path class="st2" d="M177.7,1250c0,424.5,246.7,791.3,604.4,965.1L270.5,813.6C209.2,950.9,177.6,1099.6,177.7,1250L177.7,1250z
				 M1973.9,1195.9c0-132.5-47.6-224.3-88.4-295.7c-54.4-88.3-105.3-163.1-105.3-251.5c0-98.6,74.7-190.3,180-190.3
				c4.8,0,9.3,0.6,13.9,0.9c-190.8-174.8-445-281.5-724.1-281.5c-374.6,0-704.2,192.2-896,483.3c25.2,0.8,48.9,1.3,69,1.3
				c112.2,0,285.8-13.6,285.8-13.6c57.8-3.4,64.6,81.5,6.9,88.3c0,0-58.1,6.8-122.8,10.2l390.5,1161.5l234.7-703.8l-167.1-457.7
				c-57.7-3.4-112.4-10.2-112.4-10.2c-57.8-3.4-51-91.7,6.8-88.3c0,0,177.1,13.6,282.5,13.6c112.1,0,285.8-13.6,285.8-13.6
				c57.8-3.4,64.6,81.5,6.9,88.3c0,0-58.2,6.8-122.7,10.2l387.5,1152.7l106.9-357.4C1938.6,1394.2,1973.9,1287.7,1973.9,1195.9
				L1973.9,1195.9z"/>
			<path class="st2" d="M1268.8,1343.8l-321.7,934.9c98.4,29,200.4,43.7,302.9,43.7c124.9,0,244.6-21.6,356.1-60.8
				c-3-4.7-5.5-9.6-7.6-14.8L1268.8,1343.8z M2190.9,735.5c4.6,34.2,7.2,70.8,7.2,110.3c0,108.8-20.3,231.1-81.5,384.1l-327.6,947
				c318.8-185.9,533.2-531.3,533.2-926.9C2322.6,1070.1,2277.4,893.2,2190.9,735.5L2190.9,735.5z"/>
			<path class="st2" d="M1250,0C560.8,0,0,560.7,0,1250C0,1939.3,560.8,2500,1250,2500c689.2,0,1250.1-560.7,1250.1-1250.1
				C2500.1,560.7,1939.2,0,1250,0z M1250,2442.7C592.4,2442.7,57.3,1907.6,57.3,1250C57.3,592.4,592.4,57.3,1250,57.3
				c657.6,0,1192.6,535,1192.6,1192.6C2442.7,1907.6,1907.6,2442.7,1250,2442.7L1250,2442.7z"/>
		</g>
	</g>
</g>
</svg>
