<svg version="1.1" xmlns="http://www.w3.org/2000/svg" xmlns:xlink="http://www.w3.org/1999/xlink" x="0px" y="0px"
	 viewBox="0 0 249.4 206.3" style="enable-background:new 0 0 249.4 206.3;" xml:space="preserve">
	<g><path d="M249.4,103c0-0.6-0.1-1.1-0.2-1.6c0-0.2-0.1-0.3-0.1-0.5c-0.1-0.4-0.2-0.7-0.3-1.1c-0.1-0.2-0.1-0.3-0.2-0.5
			c-0.2-0.5-0.4-0.9-0.7-1.4c0,0,0,0-0.1-0.1c-0.3-0.4-0.6-0.8-0.9-1.1c-0.1-0.1-0.2-0.2-0.3-0.3c-0.3-0.3-0.6-0.5-0.9-0.7
			c-0.1-0.1-0.3-0.2-0.4-0.3c-0.3-0.2-0.7-0.4-1.1-0.6c-0.1-0.1-0.2-0.1-0.3-0.2l0,0L12.7,0.6C9.4-0.7,5.7,0,3.1,2.4
			s-3.5,6.1-2.4,9.5L31,103.1L0.5,194.3c-1.1,3.4-0.2,7.1,2.4,9.5c1.7,1.6,3.9,2.5,6.2,2.5c1.1,0,2.3-0.2,3.4-0.7l231.4-94
			c0,0,0,0,0.1,0s0.2-0.1,0.3-0.2c0.4-0.2,0.8-0.4,1.1-0.6c0.1-0.1,0.3-0.2,0.4-0.3c0.3-0.2,0.6-0.5,0.9-0.7
			c0.1-0.1,0.2-0.2,0.3-0.3c0.4-0.4,0.7-0.8,1-1.2l0,0c0.3-0.4,0.5-0.9,0.7-1.4c0.1-0.2,0.1-0.3,0.2-0.5c0.1-0.4,0.2-0.7,0.3-1.1
			c0-0.2,0.1-0.3,0.1-0.5C249.3,104.1,249.4,103.5,249.4,103L249.4,103L249.4,103L249.4,103z M23.9,24.7L194,93.9H46.9L23.9,24.7z
			 M46.9,112h147L23.8,181.2L46.9,112z"/></g>
</svg>