<?xml version="1.0" encoding="utf-8"?>
<!-- Generator: Adobe Illustrator 22.1.0, SVG Export Plug-In . SVG Version: 6.00 Build 0)  -->
<svg version="1.1" id="Layer_1" xmlns="http://www.w3.org/2000/svg" xmlns:xlink="http://www.w3.org/1999/xlink" x="0px" y="0px"
	 viewBox="0 0 198.1 77.3" style="enable-background:new 0 0 198.1 77.3;" xml:space="preserve">
<style type="text/css">
	.st0{stroke:#FFFFFF;stroke-width:2;}
	.st1{fill:#030104;}
</style>
<path class="st0" d="M1,76.3V63.6V12.7L19,1h16.3L18.2,12.7v34.2v13.3h13.7h19l13-12.9L64,64.7L52.4,76.3H1z"/>
<path d="M131.8,38.1c0,12.8-9.2,23.6-21.4,25.9v7.1L91.1,60l19.4-11.1v6.5c7.5-2.2,13.1-9.1,13.1-17.4c0-10-8.1-18.1-18.1-18.1
	s-18.1,8.1-18.1,18.1c0,2.7,0.6,5.3,1.7,7.7l-7.5,3.5C79.8,45.7,79,42,79,38.1c0-14.6,11.8-26.4,26.4-26.4S131.8,23.5,131.8,38.1z"
	>
	<animateTransform attributeType="xml" attributeName="transform" type="rotate" from="0 105 39.3" to="360 105 39.3" dur="4s" additive="sum" repeatCount="indefinite" />
</path>
<g>
	<path d="M105.4,1c-0.8,0-1.5,0.7-1.5,1.5s0.7,1.5,1.5,1.5c19.1,0,34.6,15.5,34.6,34.6s-15.5,34.6-34.6,34.6S70.8,57.7,70.8,38.6
		c0-13,7.2-24.7,18.7-30.7c0.8-0.4,1-1.3,0.7-2.1s-1.3-1-2.1-0.7c-12.5,6.5-20.3,19.3-20.3,33.4c0,20.8,16.9,37.6,37.6,37.6
		s37.6-16.9,37.6-37.6S126.2,1,105.4,1z">
		<animateTransform attributeType="xml" attributeName="transform" type="rotate" from="360 105 39.3" to="0 105 39.3" dur="4s" additive="sum" repeatCount="indefinite" />
	</path>
</g>
<g>
	<g>
		<path class="st1" d="M181.6,58.3c-1.4,0-2-1.8-0.6-7.1l7.7-29.7c2.9-10.9,2-17.9-3.9-17.9c-7,0-23.5,7.1-37.8,19.2l2.9,4.9
			c4.5-3.1,12.1-6.2,13.9-6.2c1.4,0,1.2,1.8,0,6.3l-6.7,28.3c-4.1,15.9,0.2,19.6,6.1,19.6c5.9,0,21-5.4,34.9-19.6l-3.3-4.5
			C189.1,56.1,183.4,58.3,181.6,58.3z"/>
	</g>
</g>
</svg>
